<svg width="414" height="896" viewBox="0 0 414 896" fill="none" xmlns="http://www.w3.org/2000/svg">
    <g clip-path="url(#clip0)">
        <rect width="414" height="896" fill="#42934A" />
        <path
            d="M206.471 485.5C287.402 485.5 360.55 452.176 412.941 398.5V0H0V398.5C52.3914 452.176 125.539 485.5 206.471 485.5Z"
            fill="#42934A" />
        <circle cx="207.5" cy="171.5" r="301.5" fill="#4CA861" />
        <path
            d="M252 104C244.4 39.2 200.5 6.00003 175 0H413.5V343C406.833 332.667 429.1 353.8 355.5 305C263.5 244 261.5 185 252 104Z"
            fill="#48B9F3" />
        <path
            d="M161.5 792C169.1 856.8 213 890 238.5 896H-1.52588e-05L-1.52588e-05 553C6.66666 563.333 -15.6 542.2 58 591C150 652 152 711 161.5 792Z"
            fill="#48B9F3" />
    </g>
    <defs>
        <clipPath id="clip0">
            <rect width="414" height="896" fill="white" />
        </clipPath>
    </defs>
</svg>
