<svg width="113" height="113" viewBox="0 0 113 113" fill="none" xmlns="http://www.w3.org/2000/svg">
    <g clip-path="url(#clip0)">
        <path d="M110.793 43.6977H2.20703V110.791H110.793V43.6977Z" fill="#42934A" />
        <path d="M110.793 43.6977H2.20703L14.125 22.5102H98.875L110.793 43.6977Z" fill="#4CA861" />
        <path d="M96.668 57.8227H16.332V96.6664H96.668V57.8227Z" fill="white" />
        <path
            d="M77.6197 33.1039L83.6599 27.0637C85.3836 25.34 85.3836 22.545 83.6599 20.8214L66.337 3.49837C64.6133 1.77467 61.8183 1.77467 60.0946 3.49837L30.6422 32.9505C30.593 32.9998 30.5502 33.0529 30.5036 33.1039H77.6197Z"
            fill="#48B9F3" />
        <path
            d="M112.999 43.6979C112.999 43.3249 112.906 42.9519 112.717 42.6158L100.799 21.4283C100.408 20.7335 99.6724 20.3033 98.875 20.3033H86.0716C85.8264 19.9321 85.5423 19.5827 85.2205 19.2607L67.8976 1.93775C65.316 -0.643596 61.1156 -0.643596 58.5338 1.93775L40.1298 20.3417C39.9989 20.3175 39.8645 20.3033 39.7266 20.3033H14.125C13.3276 20.3033 12.5924 20.7335 12.2014 21.4283L0.283383 42.6158C0.0942402 42.9519 0.00110352 43.3249 0.00110352 43.6979C0.000662109 43.6979 0.000441406 43.6979 0 43.6979V110.792C0 112.011 0.988088 112.999 2.20703 112.999H110.793C112.012 112.999 113 112.011 113 110.792V43.6979C113 43.6979 112.999 43.6979 112.999 43.6979ZM61.6552 5.05915C62.5157 4.19863 63.9161 4.19885 64.7764 5.05915L82.0993 22.3821C82.5163 22.799 82.7458 23.3532 82.7458 23.9427C82.7458 24.5322 82.5163 25.0864 82.0993 25.5033L76.7056 30.8971H35.8172L61.6552 5.05915ZM15.4159 24.7174H35.7543L29.5747 30.8971H24.1767C22.9578 30.8971 21.9697 31.8852 21.9697 33.1041C21.9697 34.3231 22.9578 35.3111 24.1767 35.3111H30.5036H77.6195H91.0301C92.249 35.3111 93.2371 34.3231 93.2371 33.1041C93.2371 31.8852 92.249 30.8971 91.0301 30.8971H82.948L85.2205 28.6245C86.2865 27.5585 86.9425 26.1926 87.1135 24.7174H97.5843L107.019 41.4908H5.98083L15.4159 24.7174ZM108.586 108.585H4.41406V45.9049H108.586V108.585Z"
            fill="black" />
        <path
            d="M45.6964 60.0297H94.4609V94.4594H88.3918C87.1729 94.4594 86.1848 95.4475 86.1848 96.6664C86.1848 97.8854 87.1729 98.8735 88.3918 98.8735H96.668C97.8869 98.8735 98.875 97.8854 98.875 96.6664V57.8227C98.875 56.6037 97.8869 55.6156 96.668 55.6156H45.6964C44.4774 55.6156 43.4893 56.6037 43.4893 57.8227C43.4893 59.0416 44.4774 60.0297 45.6964 60.0297Z"
            fill="black" />
        <path
            d="M16.332 98.8735H70.7356C71.9545 98.8735 72.9426 97.8854 72.9426 96.6664C72.9426 95.4475 71.9545 94.4594 70.7356 94.4594H18.5391V60.0297H28.0401C29.2591 60.0297 30.2471 59.0416 30.2471 57.8227C30.2471 56.6037 29.2591 55.6156 28.0401 55.6156H16.332C15.1131 55.6156 14.125 56.6037 14.125 57.8227V96.6664C14.125 97.8854 15.1131 98.8735 16.332 98.8735Z"
            fill="black" />
        <path
            d="M79.5635 94.4594C78.983 94.4594 78.4136 94.6956 78.0031 95.1061C77.5926 95.5166 77.3564 96.086 77.3564 96.6664C77.3564 97.2469 77.5926 97.8163 78.0031 98.2268C78.4136 98.6373 78.983 98.8735 79.5635 98.8735C80.1461 98.8735 80.7133 98.6373 81.1238 98.2268C81.5344 97.8163 81.7705 97.2469 81.7705 96.6664C81.7705 96.086 81.5344 95.5166 81.1238 95.1061C80.7133 94.6956 80.1439 94.4594 79.5635 94.4594Z"
            fill="black" />
        <path
            d="M36.8685 60.0297C37.4489 60.0297 38.0183 59.7936 38.4288 59.3831C38.8393 58.9725 39.0755 58.4031 39.0755 57.8227C39.0755 57.2422 38.8393 56.6728 38.4288 56.2623C38.0183 55.8518 37.4489 55.6156 36.8685 55.6156C36.288 55.6156 35.7186 55.8518 35.3081 56.2623C34.8976 56.6728 34.6614 57.2422 34.6614 57.8227C34.6614 58.4031 34.8976 58.9725 35.3081 59.3831C35.7186 59.7933 36.288 60.0297 36.8685 60.0297Z"
            fill="black" />
        <path
            d="M25.0156 67.216C23.8653 67.6186 23.259 68.8777 23.6616 70.0282L29.2233 85.9189C29.5331 86.8041 30.3685 87.3967 31.3063 87.3967C32.244 87.3967 33.0796 86.8039 33.3893 85.9186L38.951 70.028C39.3538 68.8777 38.7475 67.6186 37.597 67.2158C36.4464 66.813 35.1876 67.4193 34.7848 68.5698L31.3063 78.5085L27.8276 68.5696C27.4252 67.4197 26.167 66.8132 25.0156 67.216Z"
            fill="black" />
        <path
            d="M49.217 87.3969C53.5008 87.3969 56.9857 83.9118 56.9857 79.6282V74.861C56.9857 70.5771 53.5006 67.0922 49.217 67.0922C44.9334 67.0922 41.4482 70.5773 41.4482 74.861V79.6282C41.4482 83.9118 44.9334 87.3969 49.217 87.3969ZM45.8623 74.861C45.8623 73.0113 47.3671 71.5063 49.217 71.5063C51.0669 71.5063 52.5717 73.0113 52.5717 74.861V79.6282C52.5717 81.4779 51.0667 82.9828 49.217 82.9828C47.3673 82.9828 45.8623 81.4779 45.8623 79.6282V74.861Z"
            fill="black" />
        <path
            d="M81.7407 71.5063H86.8138C88.0327 71.5063 89.0208 70.5182 89.0208 69.2993C89.0208 68.0803 88.0327 67.0922 86.8138 67.0922H81.7407C79.0254 67.0922 76.8162 69.3012 76.8162 72.0168V82.4726C76.8162 85.1879 79.0252 87.3971 81.7407 87.3971H86.8138C88.0327 87.3971 89.0208 86.409 89.0208 85.1901C89.0208 83.9712 88.0327 82.9831 86.8138 82.9831H81.7407C81.4593 82.9831 81.2302 82.754 81.2302 82.4726V79.4516H84.5849C85.8039 79.4516 86.7919 78.4635 86.7919 77.2446C86.7919 76.0256 85.8039 75.0375 84.5849 75.0375H81.2302V72.0165C81.2302 71.7352 81.4593 71.5063 81.7407 71.5063Z"
            fill="black" />
        <path
            d="M71.9605 67.0922H61.764C60.545 67.0922 59.5569 68.0803 59.5569 69.2993C59.5569 70.5182 60.545 71.5063 61.764 71.5063H64.6552V85.1899C64.6552 86.4088 65.6433 87.3969 66.8622 87.3969C68.0812 87.3969 69.0692 86.4088 69.0692 85.1899V71.5063H71.9605C73.1794 71.5063 74.1675 70.5182 74.1675 69.2993C74.1675 68.0803 73.1794 67.0922 71.9605 67.0922Z"
            fill="black" />
        <path
            d="M55.8931 27.5863H62.6797C63.8986 27.5863 64.8867 26.5983 64.8867 25.3793V14.1969C64.8867 12.978 63.8986 11.9899 62.6797 11.9899C61.4607 11.9899 60.4727 12.978 60.4727 14.1969V23.1723H55.8931C54.6741 23.1723 53.686 24.1604 53.686 25.3793C53.686 26.5983 54.6741 27.5863 55.8931 27.5863Z"
            fill="black" />
    </g>
    <defs>
        <clipPath id="clip0">
            <rect width="113" height="113" fill="white" />
        </clipPath>
    </defs>
</svg>
